<?xml version="1.0" encoding="UTF-8"?>
<svg width="16px" height="10px" viewBox="0 0 16 10" version="1.1" xmlns="http://www.w3.org/2000/svg" xmlns:xlink="http://www.w3.org/1999/xlink">
    <title>查看</title>
    <g id="页面-1" stroke="none" stroke-width="1" fill="none" fill-rule="evenodd">
        <g id="默认展开-个人中心" transform="translate(-449.000000, -272.000000)" fill="#999999" fill-rule="nonzero">
            <g id="编组-1" transform="translate(449.000000, 267.000000)">
                <g id="查看-(1)" transform="translate(0.000000, 5.000000)">
                    <path d="M8,10 C2,10 0,5 0,5 C0,5 2,0 8,0 C14,0 16,5 16,5 C16,5 13.9,10 8,10 Z M8,2.1 C6.4,2.1 5,3.4 5,5.1 C5,6.7 6.3,8.1 8,8.1 C9.6,8.1 11,6.8 11,5.1 C10.9,3.4 9.6,2.1 8,2.1 Z M8,7 C6.9,7 6,6.1 6,5 L8,5 L6.5,3.7 C6.9,3.3 7.4,3.1 8,3.1 C9.1,3.1 10,4 10,5.1 C9.9,6.2 9.1,7 8,7 Z" id="眼睛" fill="currentColor"></path>
                </g>
            </g>
        </g>
    </g>
</svg>
